<svg width="31" height="31" viewBox="0 0 31 31" fill="none" xmlns="http://www.w3.org/2000/svg">
    <path
        d="M21.2703 18.7654C21.6469 19.1454 22.2603 19.1481 22.6403 18.7715C23.0203 18.3948 23.0231 17.7815 22.6464 17.4015L20.3488 15.0833C19.4835 14.2101 18.7762 13.4965 18.1461 12.9904C17.4908 12.4642 16.8256 12.0832 16.0272 11.9815C15.6772 11.9368 15.3229 11.9368 14.9728 11.9815C14.1744 12.0832 13.5093 12.4642 12.854 12.9904C12.2238 13.4965 11.5166 14.2101 10.6513 15.0833L8.35365 17.4015C7.97702 17.7815 7.97976 18.3948 8.35976 18.7715C8.73976 19.1481 9.35314 19.1454 9.72977 18.7654L11.9867 16.4882C12.9027 15.564 13.5331 14.9301 14.0672 14.5011C14.5861 14.0844 14.9193 13.9415 15.2178 13.9034C15.4052 13.8795 15.5949 13.8795 15.7823 13.9034C16.0808 13.9415 16.414 14.0844 16.9329 14.5011C17.467 14.9301 18.0974 15.564 19.0134 16.4882L21.2703 18.7654Z"
        fill="#000000" />
</svg>
