<svg width="29" height="30" viewBox="0 0 29 30" fill="none" xmlns="http://www.w3.org/2000/svg">
    <path
        d="M7.01595 12.5326C8.12887 9.16025 11.2981 6.73825 15.0519 6.73825C17.0698 6.73825 18.8924 7.45428 20.3244 8.62595L24.4904 4.46C21.9517 2.24684 18.6971 0.879883 15.0519 0.879883C9.40731 0.879883 4.54752 4.09995 2.21118 8.81583L7.01595 12.5326Z"
        fill="#EA4335" />
    <path
        d="M19.874 22.3753C18.5735 23.2151 16.9209 23.6622 15.052 23.6622C11.3125 23.6622 8.15322 21.2587 7.0289 17.9065L2.20825 21.5667C4.54168 26.2908 9.40135 29.5205 15.052 29.5205C18.5519 29.5205 21.8964 28.2763 24.4011 25.9399L19.874 22.3753Z"
        fill="#34A853" />
    <path
        d="M24.4009 25.94C27.0203 23.4966 28.7213 19.8587 28.7213 15.2002C28.7213 14.3539 28.5911 13.4426 28.3958 12.5964H15.0518V18.1293H22.7327C22.3537 19.9899 21.3364 21.431 19.8738 22.3754L24.4009 25.94Z"
        fill="#4A90E2" />
    <path
        d="M7.02885 17.9068C6.74404 17.0577 6.58982 16.1477 6.58982 15.2004C6.58982 14.2675 6.7394 13.3708 7.01598 12.5327L2.21121 8.81592C1.25246 10.7377 0.731445 12.9036 0.731445 15.2004C0.731445 17.4912 1.26223 19.6519 2.2082 21.5671L7.02885 17.9068Z"
        fill="#FBBC05" />
</svg>
