<svg width="26" height="26" viewBox="0 0 26 26" fill="none" xmlns="http://www.w3.org/2000/svg">
<path fill-rule="evenodd" clip-rule="evenodd" d="M24.1923 4.45992C24.5458 4.1771 24.6032 3.66123 24.3203 3.30769C24.0375 2.95416 23.5216 2.89684 23.1681 3.17967L19.5335 6.08738C17.7002 4.44099 15.3619 3.00003 12.75 3.00003C10.4099 3.00003 8.29402 4.15753 6.57632 5.56395C4.84924 6.97804 3.43704 8.71505 2.48808 10.0369L2.40982 10.1457C1.83854 10.9395 1.36829 11.593 1.36829 12.5639C1.36828 13.5349 1.83845 14.1882 2.40961 14.9819L2.48783 15.0907C3.08495 15.9224 3.86272 16.9147 4.78432 17.8867L1.30769 20.668C0.954159 20.9508 0.896839 21.4667 1.17967 21.8202C1.46249 22.1738 1.97837 22.2311 2.3319 21.9482L24.1923 4.45992ZM12.75 4.63956C14.6931 4.63956 16.5781 5.68809 18.234 7.12696L15.3739 9.41503C14.6635 8.82259 13.7483 8.46513 12.75 8.46513C10.4863 8.46513 8.65117 10.3002 8.65117 12.564C8.65117 13.2366 8.81369 13.8724 9.10138 14.433L6.06946 16.8586C5.17208 15.9245 4.40806 14.9541 3.81971 14.1345C3.13789 13.1848 3.00781 12.9558 3.00782 12.5639C3.00782 12.1721 3.13795 11.943 3.81994 10.9931C4.72635 9.73047 6.04266 8.11989 7.61499 6.8325C9.1967 5.53743 10.9511 4.63956 12.75 4.63956ZM12.75 10.1047C13.2268 10.1047 13.6718 10.24 14.0489 10.4751L10.4266 13.3729C10.3385 13.1198 10.2907 12.8477 10.2907 12.564C10.2907 11.2057 11.3918 10.1047 12.75 10.1047Z" fill="#8D8D8D"/>
<path d="M21.9263 8.61899C21.6398 8.26843 21.1233 8.21649 20.7728 8.503C20.4222 8.7895 20.3703 9.30594 20.6568 9.6565C21.0399 10.1253 21.3828 10.579 21.68 10.993C22.362 11.943 22.4922 12.1721 22.4922 12.564C22.4922 12.9558 22.3621 13.1849 21.6801 14.1349C20.7737 15.3974 19.4573 17.008 17.885 18.2954C16.3033 19.5905 14.5489 20.4884 12.75 20.4884C11.2145 20.4884 9.70942 19.8348 8.30964 18.8294C7.94192 18.5652 7.42971 18.6492 7.16559 19.0169C6.90147 19.3847 6.98546 19.8969 7.35318 20.161C8.91022 21.2794 10.7471 22.1279 12.75 22.1279C15.0901 22.1279 17.206 20.9704 18.9237 19.564C20.6508 18.1499 22.063 16.4129 23.0119 15.091L23.0902 14.9822C23.6615 14.1884 24.1317 13.5349 24.1317 12.5639C24.1317 11.593 23.6614 10.9395 23.0901 10.1457L23.0119 10.0368C22.6974 9.59883 22.3338 9.1176 21.9263 8.61899Z" fill="#8D8D8D"/>
<path d="M16.8488 12.564C16.8488 12.1112 16.4818 11.7442 16.0291 11.7442C15.5763 11.7442 15.2093 12.1112 15.2093 12.564C15.2093 13.9222 14.1082 15.0233 12.75 15.0233C12.2973 15.0233 11.9302 15.3903 11.9302 15.843C11.9302 16.2958 12.2973 16.6628 12.75 16.6628C15.0137 16.6628 16.8488 14.8277 16.8488 12.564Z" fill="#8D8D8D"/>
</svg>
