<svg width="28" height="27" viewBox="0 0 28 27" fill="none" xmlns="http://www.w3.org/2000/svg">
    <path
        d="M11.6667 18.9145C11.1834 18.9145 10.7917 19.3063 10.7917 19.7895C10.7917 20.2728 11.1834 20.6645 11.6667 20.6645H16.3333C16.8166 20.6645 17.2083 20.2728 17.2083 19.7895C17.2083 19.3063 16.8166 18.9145 16.3333 18.9145H11.6667Z"
        fill="#808080" />
    <path fill-rule="evenodd" clip-rule="evenodd"
        d="M14.2459 0.462761C14.082 0.456749 13.918 0.456749 13.7541 0.462761C12.6721 0.502452 11.6979 0.870359 10.6297 1.48279C9.5887 2.07961 8.39025 2.95034 6.86964 4.05514L6.78698 4.1152C5.26635 5.21999 4.06788 6.09072 3.17859 6.89632C2.26604 7.723 1.61508 8.53588 1.24299 9.5526C1.18663 9.70662 1.13593 9.86265 1.091 10.0204C0.79441 11.0616 0.84325 12.1019 1.09561 13.3071C1.34154 14.4815 1.79932 15.8904 2.38016 17.678L2.41173 17.7752C2.99254 19.5628 3.45031 20.9716 3.94167 22.0663C4.4459 23.1897 5.01783 24.06 5.86981 24.728C5.99887 24.8293 6.1316 24.9257 6.26773 25.0172C7.16637 25.621 8.1708 25.896 9.39498 26.0284C10.588 26.1574 12.0693 26.1574 13.9489 26.1574H14.0511C15.9307 26.1574 17.4121 26.1574 18.605 26.0284C19.8292 25.896 20.8336 25.621 21.7323 25.0172C21.8684 24.9257 22.0011 24.8292 22.1302 24.728C22.9822 24.06 23.5541 23.1897 24.0583 22.0663C24.5497 20.9716 25.0075 19.5627 25.5883 17.7751L25.6199 17.6779C26.2007 15.8905 26.6585 14.4815 26.9044 13.3071C27.1568 12.1019 27.2056 11.0616 26.909 10.0204C26.8641 9.86265 26.8134 9.70662 26.757 9.5526C26.3849 8.53588 25.734 7.723 24.8214 6.89632C23.9321 6.09071 22.7337 5.21999 21.213 4.11519L21.1303 4.05512C19.6097 2.95033 18.4113 2.07961 17.3703 1.48279C16.3021 0.870359 15.3279 0.502452 14.2459 0.462761ZM13.8182 2.21159C13.9394 2.20714 14.0606 2.20714 14.1818 2.21159C14.8765 2.23707 15.5683 2.46687 16.4999 3.00097C17.4493 3.54529 18.5721 4.35954 20.1431 5.50096C21.7141 6.64238 22.8355 7.45855 23.6465 8.19328C24.4424 8.91423 24.8747 9.50123 25.1136 10.154C25.1553 10.2679 25.1927 10.3832 25.226 10.4998C25.4164 11.1683 25.4116 11.8974 25.1916 12.9484C24.9673 14.0195 24.5398 15.3389 23.9397 17.1858C23.3396 19.0327 22.9099 20.3513 22.4618 21.3497C22.0221 22.3294 21.5974 22.922 21.0504 23.3509C20.955 23.4257 20.8569 23.497 20.7563 23.5646C20.1793 23.9523 19.4845 24.1731 18.4168 24.2886C17.3288 24.4062 15.9419 24.4074 14 24.4074C12.0581 24.4074 10.6712 24.4062 9.58317 24.2886C8.51556 24.1731 7.82074 23.9523 7.24376 23.5646C7.14314 23.497 7.04504 23.4257 6.94965 23.3509C6.40262 22.922 5.97795 22.3294 5.53822 21.3497C5.09008 20.3513 4.66037 19.0326 4.06029 17.1858C3.46021 15.3389 3.03276 14.0195 2.80846 12.9484C2.58838 11.8974 2.58363 11.1683 2.77406 10.4998C2.80726 10.3832 2.84474 10.2679 2.8864 10.154C3.1253 9.50123 3.55766 8.91423 4.3535 8.19328C5.16455 7.45855 6.2859 6.64238 7.85692 5.50096C9.42795 4.35954 10.5507 3.54529 11.5001 3.00097C12.4317 2.46687 13.1236 2.23707 13.8182 2.21159Z"
        fill="#808080" />
</svg>
