<svg width="26" height="25" viewBox="0 0 26 25" fill="none" xmlns="http://www.w3.org/2000/svg">
    <path fill-rule="evenodd" clip-rule="evenodd"
        d="M6.34261 3.79307C3.23133 6.05355 1.67568 7.18379 1.06469 8.85331C1.01568 8.98724 0.971595 9.12292 0.932526 9.26008C0.445507 10.9699 1.03971 12.7987 2.22811 16.4562C3.41652 20.1137 4.01072 21.9425 5.40973 23.0395C5.52195 23.1275 5.63737 23.2113 5.75574 23.2909C7.23137 24.2824 9.15425 24.2824 13 24.2824C16.8458 24.2824 18.7686 24.2824 20.2443 23.2909C20.3626 23.2113 20.4781 23.1275 20.5903 23.0395C21.9893 21.9425 22.5835 20.1137 23.7719 16.4562C24.9603 12.7987 25.5545 10.9699 25.0675 9.26008C25.0284 9.12292 24.9843 8.98724 24.9353 8.85331C24.3243 7.18379 22.7687 6.05356 19.6574 3.79308C16.5461 1.5326 14.9905 0.402348 13.2139 0.337173C13.0713 0.331945 12.9287 0.331945 12.7862 0.337173C11.0095 0.402348 9.45389 1.53259 6.34261 3.79307ZM10.6667 17.9145C10.1834 17.9145 9.79167 18.3063 9.79167 18.7895C9.79167 19.2728 10.1834 19.6645 10.6667 19.6645H15.3333C15.8166 19.6645 16.2083 19.2728 16.2083 18.7895C16.2083 18.3063 15.8166 17.9145 15.3333 17.9145H10.6667Z"
        fill="#42C83C" />
</svg>
