<svg width="26" height="24" viewBox="0 0 26 24" fill="none" xmlns="http://www.w3.org/2000/svg">
    <path fill-rule="evenodd" clip-rule="evenodd"
        d="M23.3212 2.5915C21.7724 1.01202 20.0482 0.523393 18.429 0.641931C16.8536 0.757263 15.4348 1.44066 14.3985 2.098C13.5813 2.61637 12.4182 2.61637 11.601 2.098C10.5647 1.44067 9.14595 0.757279 7.57053 0.641949C5.95132 0.523414 4.22712 1.01204 2.6783 2.5915C0.849809 4.45617 0.276139 6.75803 0.506501 9.08643C0.734209 11.388 1.74376 13.7277 3.09022 15.8008C4.44028 17.8795 6.16484 19.7458 7.89497 21.1009C9.58704 22.4262 11.4281 23.375 12.9998 23.375C14.5715 23.375 16.4125 22.4262 18.1046 21.1009C19.8347 19.7458 21.5593 17.8795 22.9093 15.8008C24.2558 13.7277 25.2653 11.388 25.493 9.08643C25.7234 6.75803 25.1497 4.45617 23.3212 2.5915ZM15.3359 3.57575C16.2523 2.99447 17.3865 2.47293 18.5568 2.38726C19.6832 2.3048 20.8973 2.6191 22.0717 3.81675C23.4755 5.2483 23.9403 7.00652 23.7515 8.91413C23.5602 10.8486 22.6931 12.9208 21.4417 14.8476C20.1939 16.7688 18.5994 18.4904 17.0255 19.7232C15.4136 20.9858 13.9657 21.625 12.9998 21.625C12.0339 21.625 10.586 20.9858 8.97406 19.7232C7.40017 18.4904 5.80564 16.7688 4.55785 14.8476C3.30646 12.9208 2.43939 10.8486 2.248 8.91413C2.05927 7.00652 2.52403 5.2483 3.9278 3.81676C5.1022 2.61912 6.31631 2.30482 7.44276 2.38728C8.613 2.47295 9.74722 2.99448 10.6636 3.57576C12.053 4.45712 13.9465 4.45712 15.3359 3.57575Z"
        fill="#808080" />
</svg>
