<svg enable-background="new 0 0 28 28" viewBox="0 0 28 28" xmlns="http://www.w3.org/2000/svg">
    <path
        d="m23.6 8.4c1.5 2.6 2.2 3.9 2.3 5.3v.6c-.1 1.4-.8 2.7-2.3 5.3s-2.2 3.9-3.4 4.6c-.2.1-.3.2-.5.3-1.3.6-2.7.6-5.7.6s-4.5 0-5.7-.6c-.2-.1-.3-.2-.5-.3-1.2-.8-1.9-2.1-3.4-4.6-1.5-2.6-2.2-3.9-2.3-5.3 0-.2 0-.4 0-.6.1-1.4.8-2.7 2.3-5.3s2.2-3.9 3.4-4.6c.2-.1.3-.2.5-.3 1.2-.6 2.7-.6 5.7-.6s4.5 0 5.7.6c.2.1.3.2.5.3 1.2.8 1.9 2.1 3.4 4.6z"
        fill="none" stroke="#42C83C" stroke-width="1.5" />
    <path
        d="m11.7 13c.2-.6.7-1 1.3-1.3l3.1-1.3c1-.4 1.9.6 1.5 1.5l-1.3 3.1c-.2.6-.7 1-1.3 1.3l-3.1 1.3c-.9.4-1.9-.6-1.5-1.5z"
        fill="none" stroke="#42C83C" stroke-width="1.5" />
    <path
        d="m19.7 3.3c-4 0-7.9 0-11.9 0-2 3.3-4 6.6-6 9.9.2.5 1 2 2 4 2 4.1 2.4 4.9 3.5 5.8 1.8 1.5 4.5 2.3 5.2 1.5.9-1-2.5-3.6-2.2-8 0-.7.2-2.9 1.9-4.5 1.6-1.5 4.4-2.2 5.2-1.3s-.2 3.2-1.3 4.5c-1.4 1.5-3.3 1.9-3.7 2-1.8.3-2.4-.4-3.3.2-1.3.7-1.8 3.2-1.1 4.7 1.2 2.8 6.8 3.6 10.6 2.3 6.2-2.2 7.6-10.1 7.6-10.5-2.2-3.5-4.3-7-6.5-10.6z"
        fill="#42C83C" />
</svg>