<svg width="28" height="28" viewBox="0 0 28 28" fill="none" xmlns="http://www.w3.org/2000/svg">
    <path
        d="M23.625 8.44298C25.1109 11.0167 25.8539 12.3035 25.9237 13.7107C25.9333 13.9034 25.9333 14.0965 25.9237 14.2892C25.8539 15.6965 25.1109 16.9833 23.625 19.557C22.1391 22.1307 21.3961 23.4175 20.2124 24.1816C20.0503 24.2863 19.8831 24.3828 19.7114 24.4709C18.4577 25.114 16.9718 25.114 14 25.114C11.0282 25.114 9.54226 25.114 8.28864 24.4709C8.11696 24.3828 7.94975 24.2863 7.78763 24.1816C6.60388 23.4175 5.86092 22.1307 4.375 19.557C2.88909 16.9833 2.14613 15.6965 2.07627 14.2892C2.0667 14.0965 2.0667 13.9034 2.07627 13.7107C2.14613 12.3035 2.88909 11.0167 4.37501 8.44298C5.86092 5.8693 6.60388 4.58247 7.78763 3.81835C7.94975 3.7137 8.11696 3.61716 8.28864 3.52909C9.54226 2.88599 11.0282 2.88599 14 2.88599C16.9718 2.88599 18.4577 2.88599 19.7114 3.52909C19.8831 3.61716 20.0503 3.7137 20.2124 3.81835C21.3961 4.58247 22.1391 5.86931 23.625 8.44298Z"
        stroke="#808080" stroke-width="1.5" />
    <path
        d="M11.6854 12.9545C11.9223 12.3792 12.3792 11.9223 12.9546 11.6854L16.0776 10.3994C17.0365 10.0046 17.9954 10.9635 17.6006 11.9224L16.3146 15.0454C16.0777 15.6208 15.6208 16.0777 15.0455 16.3146L11.9224 17.6006C10.9635 17.9954 10.0046 17.0365 10.3994 16.0775L11.6854 12.9545Z"
        stroke="#808080" stroke-width="1.5" />
</svg>
