<svg width="26" height="26" viewBox="0 0 26 26" fill="none" xmlns="http://www.w3.org/2000/svg">
<path d="M21.3958 6.5C21.3958 6.05127 21.0321 5.6875 20.5833 5.6875C20.1346 5.6875 19.7708 6.05127 19.7708 6.5V19.5C19.7708 19.9487 20.1346 20.3125 20.5833 20.3125C21.0321 20.3125 21.3958 19.9487 21.3958 19.5V6.5Z" fill="#363636"/>
<path d="M14.4006 7.85615C13.1973 7.14925 12.2445 6.58954 11.4662 6.22433C10.6842 5.85736 9.95498 5.62429 9.22177 5.7027C8.10414 5.82222 7.09321 6.41824 6.43768 7.33628C6.00952 7.93591 5.84415 8.68698 5.76565 9.55759C5.68749 10.4245 5.68749 11.5426 5.6875 12.9578V13.0422C5.68749 14.4574 5.68749 15.5755 5.76565 16.4424C5.84414 17.313 6.00952 18.0641 6.43768 18.6637C7.0932 19.5818 8.10414 20.1778 9.22177 20.2973C9.95497 20.3757 10.6842 20.1426 11.4662 19.7757C12.2445 19.4105 13.1972 18.8508 14.4005 18.1439L14.4749 18.1002C15.6785 17.3932 16.6312 16.8335 17.331 16.3304C18.0354 15.824 18.5936 15.3007 18.8899 14.6235C19.3423 13.5898 19.3423 12.4102 18.8899 11.3765C18.5936 10.6993 18.0354 10.176 17.331 9.6696C16.6312 9.16651 15.6785 8.60686 14.4749 7.89985L14.4006 7.85615Z" fill="#363636"/>
</svg>
