<svg width="14" height="15" viewBox="0 0 14 15" fill="none" xmlns="http://www.w3.org/2000/svg">
<path d="M8.95367 2.77854C7.72679 2.079 6.7738 1.53562 5.99983 1.18312C5.22296 0.829292 4.5486 0.629477 3.89288 0.69754C2.85219 0.805562 1.90479 1.34479 1.28738 2.18401C0.897406 2.7141 0.735032 3.39446 0.656785 4.23677C0.578851 5.0757 0.578854 6.16304 0.578857 7.56142V7.6197C0.578854 9.01808 0.578851 10.1054 0.656785 10.9444C0.735032 11.7867 0.897406 12.467 1.28738 12.9971C1.90478 13.8363 2.85219 14.3756 3.89288 14.4836C4.5486 14.5516 5.22296 14.3518 5.99983 13.998C6.77379 13.6455 7.72678 13.1021 8.95364 12.4026L9.00345 12.3742C10.2302 11.6747 11.1833 11.1313 11.8795 10.6456C12.5776 10.1584 13.0923 9.68034 13.3621 9.08178C13.79 8.1327 13.79 7.04842 13.3621 6.09934C13.0923 5.50078 12.5776 5.0227 11.8795 4.53556C11.1833 4.0498 10.2302 3.50641 9.00344 2.80692L8.95367 2.77854Z" fill="#555555"/>
</svg>
