<svg width="26" height="26" viewBox="0 0 26 26" fill="none" xmlns="http://www.w3.org/2000/svg">
<path d="M6.22925 6.5C6.22925 6.05127 5.86548 5.6875 5.41675 5.6875C4.96802 5.6875 4.60425 6.05127 4.60425 6.5V19.5C4.60425 19.9487 4.96802 20.3125 5.41675 20.3125C5.86548 20.3125 6.22925 19.9487 6.22925 19.5L6.22925 6.5Z" fill="#363636"/>
<path d="M16.7783 5.7027C16.0451 5.62429 15.3159 5.85736 14.5339 6.22432C13.7556 6.58953 12.8029 7.14923 11.5996 7.85613L11.5251 7.89984C10.3216 8.60685 9.36892 9.16651 8.6691 9.66959C7.96464 10.176 7.40647 10.6993 7.11017 11.3765C6.65783 12.4102 6.65783 13.5898 7.11017 14.6235C7.40647 15.3007 7.96464 15.824 8.6691 16.3304C9.36892 16.8335 10.3216 17.3931 11.5251 18.1001L11.5996 18.1439C12.8029 18.8508 13.7556 19.4105 14.5339 19.7757C15.3159 20.1426 16.0451 20.3757 16.7783 20.2973C17.8959 20.1778 18.9069 19.5818 19.5624 18.6637C19.9906 18.0641 20.1559 17.313 20.2344 16.4424C20.3126 15.5755 20.3126 14.4574 20.3126 13.0422V12.9578C20.3126 11.5426 20.3126 10.4245 20.2344 9.55759C20.1559 8.68698 19.9906 7.93591 19.5624 7.33628C18.9069 6.41824 17.8959 5.82222 16.7783 5.7027Z" fill="#363636"/>
</svg>
