<svg width="105" height="107" viewBox="0 0 105 107" fill="none" xmlns="http://www.w3.org/2000/svg">
<path fill-rule="evenodd" clip-rule="evenodd" d="M105.516 -61.6635C98.7553 -54.9191 90.3603 -45.6737 87.7018 -35.1802C86.871 -31.901 86.5999 -28.4986 87.1134 -25.0129C86.5534 -22.5455 86.3161 -20.0106 86.4957 -17.4251C86.429 -17.1865 86.3652 -16.9472 86.3044 -16.7073C85.8322 -14.8432 85.5407 -12.9393 85.4715 -11.0028C85.1526 -10.0971 84.8734 -9.18081 84.6388 -8.25481C84.5685 -7.97766 84.5023 -7.69964 84.4402 -7.42076C78.2773 -0.994805 71.58 7.21779 69.2581 16.3824C67.9265 21.6383 68.0327 27.211 70.503 32.9354C72.9722 38.6571 77.7938 44.5081 85.8538 50.338C104.631 63.9195 122.102 64.6009 135.506 65.1236C136.751 65.1721 137.96 65.2193 139.133 65.2753C146.053 65.606 151.594 66.2445 155.45 69.1875C159.286 72.115 161.528 77.3906 161.641 87.1987L162.23 87.2126C162.117 77.3553 159.866 71.8574 155.812 68.763C151.778 65.684 146.033 65.052 139.142 64.7227C137.967 64.6666 136.757 64.6193 135.513 64.5706C122.115 64.0468 104.821 63.3705 86.2025 49.904C78.2056 44.1198 73.4659 38.3467 71.0478 32.7435C68.6309 27.1429 68.5238 21.69 69.8314 16.5287C72.0381 7.81849 78.2701 -0.0502673 84.2228 -6.34749L84.2173 -6.31736C84.0656 -5.98484 83.9188 -5.65068 83.7771 -5.31491C79.6706 -0.207536 76.0404 5.61082 74.4537 11.8738C73.1221 17.1297 73.2283 22.7024 75.6986 28.4267C78.1678 34.1484 82.9894 39.9994 91.0495 45.8293C109.827 59.4109 127.298 60.0922 140.701 60.615C141.946 60.6635 143.156 60.7107 144.328 60.7667C151.248 61.0973 156.79 61.7358 160.646 64.6788C164.481 67.6064 166.724 72.8819 166.837 82.6901L167.426 82.704C167.312 72.8467 165.061 67.3488 161.007 64.2544C156.973 61.1754 151.229 60.5433 144.337 60.2141C143.163 60.158 141.953 60.1106 140.709 60.062C127.311 59.5381 110.016 58.8619 91.3981 45.3954C83.4012 39.6112 78.6615 33.8381 76.2434 28.2349C73.8265 22.6343 73.7194 17.1814 75.027 12.0201C76.3256 6.8944 79.0181 2.06012 82.2273 -2.33401C80.732 0.396816 79.5273 3.25478 78.7781 6.21189C77.4465 11.4678 77.5527 17.0405 80.023 22.7648C82.4922 28.4865 87.3138 34.3375 95.3739 40.1674C114.151 53.749 131.622 54.4303 145.026 54.9531L145.027 54.9531L145.027 54.9531L145.032 54.9533L145.035 54.9534C146.277 55.0019 147.483 55.0489 148.653 55.1048C155.573 55.4354 161.114 56.0739 164.97 59.0169C168.806 61.9445 171.048 67.22 171.161 77.0282L171.75 77.0421C171.637 67.1848 169.386 61.6869 165.332 58.5925C161.298 55.5135 155.553 54.8814 148.662 54.5522C147.487 54.4961 146.277 54.4487 145.033 54.4001C131.635 53.8762 114.341 53.2 95.7225 39.7335C87.7256 33.9493 82.9859 28.1762 80.5678 22.573C78.1509 16.9724 78.0438 11.5195 79.3514 6.3582C80.0273 3.69017 81.0809 1.1011 82.3885 -1.38804C82.3095 -1.10971 82.2344 -0.830471 82.1635 -0.550343C80.8319 4.70553 80.9381 10.2783 83.4084 16.0026C85.8776 21.7243 90.6992 27.5753 98.7592 33.4052C117.536 46.9868 135.007 47.6681 148.411 48.1908L148.413 48.1909C149.657 48.2394 150.866 48.2866 152.038 48.3426C158.958 48.6732 164.5 49.3117 168.356 52.2547C172.191 55.1823 174.434 60.4578 174.547 70.2659L175.136 70.2799C175.022 60.4225 172.771 54.9247 168.717 51.8302C164.683 48.7513 158.939 48.1192 152.047 47.7899C150.872 47.7338 149.662 47.6865 148.419 47.6379C135.021 47.114 117.726 46.4378 99.1079 32.9713C91.111 27.1871 86.3712 21.414 83.9532 15.8107C81.5362 10.2102 81.4292 4.75723 82.7368 -0.404034C83.0492 -1.63723 83.4423 -2.85355 83.9039 -4.05095C83.526 -0.0611734 84.0622 4.07727 85.8837 8.29815C88.3529 14.0198 93.1744 19.8708 101.234 25.7007C120.012 39.2823 137.483 39.9636 150.887 40.4864C152.131 40.5349 153.341 40.5821 154.513 40.6381C161.434 40.9687 166.975 41.6072 170.831 44.5503C174.666 47.4778 176.909 52.7533 177.022 62.5615L177.611 62.5754C177.497 52.7181 175.246 47.2202 171.192 44.1258C167.158 41.0468 161.414 40.4147 154.522 40.0855C153.348 40.0294 152.138 39.982 150.894 39.9334C137.496 39.4096 120.201 38.7333 101.583 25.2668C93.5863 19.4826 88.8465 13.7095 86.4284 8.10627C84.458 3.54022 84.0228 -0.927705 84.6379 -5.21945C84.8886 -5.60671 85.1444 -5.99103 85.4046 -6.37233C85.5 -6.48578 85.5956 -6.59888 85.6914 -6.71159C85.9934 -4.55483 86.595 -2.36592 87.5494 -0.154374C90.0186 5.56731 94.8401 11.4183 102.9 17.2482C121.677 30.8298 139.148 31.5111 152.552 32.0339C153.797 32.0824 155.007 32.1296 156.179 32.1856C163.099 32.5162 168.641 33.1547 172.497 36.0977C176.332 39.0253 178.575 44.3008 178.688 54.109L179.277 54.1229C179.163 44.2656 176.912 38.7677 172.858 35.6733C168.824 32.5943 163.08 31.9622 156.188 31.633C155.013 31.5768 153.803 31.5295 152.56 31.4809C139.162 30.957 121.867 30.2808 103.249 16.8143C95.2519 11.0301 90.5122 5.25697 88.0941 -0.346245C87.0795 -2.69739 86.4719 -5.02251 86.2052 -7.31096C86.9055 -8.12082 87.6128 -8.91048 88.3199 -9.67874C88.3881 -9.51162 88.4583 -9.34437 88.5305 -9.17699C90.9997 -3.45531 95.8213 2.39571 103.881 8.22558C122.658 21.8072 140.13 22.4885 153.533 23.0112L153.536 23.0113L153.539 23.0114L153.544 23.0116L153.549 23.0118C154.789 23.0602 155.993 23.1072 157.16 23.163C164.08 23.4936 169.622 24.1321 173.478 27.0751C177.313 30.0027 179.556 35.2782 179.669 45.0864L180.258 45.1003C180.144 35.2429 177.893 29.7451 173.839 26.6506C169.805 23.5717 164.061 22.9396 157.169 22.6103C155.995 22.5542 154.784 22.5069 153.541 22.4583C140.143 21.9344 122.848 21.2582 104.23 7.79167C96.2331 2.00747 91.4934 -3.76565 89.0753 -9.36887C88.9632 -9.62873 88.856 -9.88828 88.7537 -10.1475C89.8039 -11.2761 90.8505 -12.3569 91.8699 -13.3859C94.641 -9.35581 98.6838 -5.2851 104.298 -1.22464C123.075 12.357 140.546 13.0383 153.95 13.561C155.194 13.6096 156.404 13.6567 157.576 13.7127C164.497 14.0434 170.038 14.6819 173.894 17.6249C177.729 20.5524 179.972 25.828 180.085 35.6361L180.674 35.65C180.56 25.7927 178.309 20.2948 174.255 17.2004C170.221 14.1214 164.477 13.4894 157.585 13.1601C156.411 13.104 155.201 13.0567 153.957 13.0081C140.559 12.4842 123.264 11.8079 104.646 -1.65856C99.0195 -5.72842 95.0052 -9.79279 92.2777 -13.7964L92.4625 -13.9815L92.7037 -14.2225L92.2682 -14.6095C92.1618 -14.5035 92.0551 -14.3968 91.948 -14.2895C91.9115 -14.3451 91.8753 -14.4008 91.8393 -14.4564C93.5898 -16.4006 95.3557 -18.2161 97.0281 -19.8844L96.5926 -20.2714C94.9606 -18.6435 93.2335 -16.8698 91.5148 -14.9681C91.2954 -15.3212 91.0859 -15.6738 90.886 -16.0258C93.9242 -19.9898 97.328 -23.5687 100.413 -26.6467L99.9779 -27.0336C96.9512 -24.0143 93.5969 -20.4938 90.5765 -16.5844C90.2512 -17.1866 89.9537 -17.7872 89.6829 -18.3859C93.3988 -24.5081 98.4701 -29.9434 102.889 -34.3511L102.453 -34.7381C98.126 -30.4215 93.1294 -25.0804 89.3959 -19.0433C89.063 -19.8344 88.776 -20.6225 88.5323 -21.4072C92.1007 -29.7571 98.868 -37.1312 104.554 -42.8037L104.119 -43.1906C98.5853 -37.6707 91.9573 -30.4754 88.2755 -22.2917C88.0327 -23.1904 87.8458 -24.0844 87.7112 -24.9732C87.7582 -25.1771 87.8075 -25.3806 87.8589 -25.5836C90.4787 -35.9244 98.7718 -45.0791 105.536 -51.8263L105.1 -52.2133C98.5276 -45.657 90.4111 -36.7372 87.5213 -26.6049C87.2865 -29.4822 87.5822 -32.299 88.2751 -35.0339C90.8949 -45.3746 99.188 -54.5293 105.952 -61.2765L105.516 -61.6635ZM85.5647 -7.74686C85.4942 -7.60931 85.4246 -7.47146 85.3558 -7.33332C85.4297 -7.43873 85.504 -7.5439 85.5786 -7.64881L85.5685 -7.75086L85.5647 -7.74686ZM87.2707 -9.92485C87.483 -10.1987 87.697 -10.4707 87.9124 -10.7407C87.8292 -10.9724 87.7497 -11.2039 87.6739 -11.435C87.2915 -10.8284 86.9217 -10.2149 86.5667 -9.5946C86.7362 -9.76488 86.9049 -9.93365 87.0725 -10.1009L87.2707 -9.92485ZM91.538 -13.8775C90.9266 -13.2614 90.3043 -12.6257 89.6763 -11.9715C90.2606 -12.6676 90.8519 -13.3497 91.446 -14.0171L91.5061 -13.9258L91.538 -13.8775ZM91.1183 -14.5269C90.9072 -14.8621 90.7046 -15.197 90.5106 -15.5316C89.6645 -14.4072 88.8496 -13.2528 88.0811 -12.0708C88.1623 -11.8048 88.2485 -11.5384 88.3397 -11.2716C89.2498 -12.3925 90.1816 -13.4786 91.1183 -14.5269ZM85.4106 -8.72306L85.337 -8.58501C85.3821 -8.75153 85.4287 -8.91774 85.4767 -9.08364C85.4797 -9.0107 85.4831 -8.93772 85.4868 -8.8647L85.4106 -8.72306ZM87.4452 -12.1698C86.9585 -11.4141 86.4906 -10.6469 86.0455 -9.86909C86.0424 -10.2091 86.0465 -10.5482 86.0575 -10.8863C86.3678 -11.7613 86.7157 -12.6266 87.0966 -13.4815C87.1999 -13.0454 87.3159 -12.6081 87.4452 -12.1698ZM90.1959 -16.0872C89.3888 -15.0235 88.6081 -13.9319 87.8666 -12.8145C87.7264 -13.331 87.6047 -13.846 87.5008 -14.3594C88.0541 -15.5232 88.6663 -16.6667 89.3255 -17.7878C89.592 -17.2221 89.8819 -16.6552 90.1959 -16.0872ZM89.0284 -18.4399C89.0009 -18.5023 88.9737 -18.5648 88.9467 -18.6272C88.6646 -19.2809 88.4134 -19.9326 88.1915 -20.5821C87.7682 -19.5202 87.3981 -18.4431 87.0898 -17.3523C87.1386 -16.6851 87.2159 -16.0146 87.3233 -15.341C87.8488 -16.392 88.4201 -17.4255 89.0284 -18.4399ZM86.8885 -14.4449C86.806 -14.8681 86.7352 -15.2901 86.6758 -15.7109C86.4708 -14.7852 86.3123 -13.8505 86.2054 -12.9075C86.4213 -13.4238 86.6494 -13.9363 86.8885 -14.4449ZM87.9108 -21.4545C87.5881 -20.689 87.292 -19.9151 87.0257 -19.1334C87.027 -20.583 87.1577 -22.0157 87.4004 -23.4287C87.5415 -22.7732 87.7111 -22.1151 87.9108 -21.4545ZM63.3472 19.8258C66.0057 9.33223 74.4006 0.0868259 81.1616 -6.65754L81.5972 -6.27056C74.8334 0.476598 66.5403 9.63133 63.9205 19.9721C62.6129 25.1333 62.72 30.5863 65.1369 36.1868C67.555 41.7901 72.2947 47.5632 80.2916 53.3474C98.9096 66.8139 116.204 67.4901 129.602 68.014C130.846 68.0626 132.056 68.1099 133.231 68.166C140.122 68.4953 145.867 69.1274 149.901 72.2064C153.955 75.3008 156.206 80.7986 156.319 90.656L155.731 90.642C155.617 80.8339 153.375 75.5584 149.539 72.6308C145.684 69.6878 140.142 69.0493 133.222 68.7187C132.049 68.6627 130.84 68.6155 129.595 68.5669C116.191 68.0442 98.7201 67.3629 79.9429 53.7813C71.8829 47.9514 67.0613 42.1004 64.5921 36.3787C62.1218 30.6544 62.0156 25.0816 63.3472 19.8258ZM74.726 -4.08031C67.965 2.66406 59.5701 11.9095 56.9116 22.403C55.58 27.6589 55.6861 33.2316 58.1565 38.9559C60.6257 44.6776 65.4473 50.5287 73.5073 56.3585C92.2844 69.9401 109.755 70.6214 123.159 71.1442L123.159 71.1442C124.404 71.1927 125.614 71.2399 126.786 71.2959C133.706 71.6265 139.248 72.265 143.104 75.208C146.939 78.1356 149.182 83.4111 149.295 93.2193L149.884 93.2332C149.77 83.3759 147.519 77.878 143.465 74.7836C139.431 71.7046 133.687 71.0725 126.795 70.7433C125.621 70.6872 124.41 70.6398 123.167 70.5912C109.769 70.0674 92.474 69.3911 73.856 55.9246C65.8591 50.1404 61.1193 44.3673 58.7012 38.7641C56.2843 33.1635 56.1772 27.7106 57.4848 22.5493C60.1047 12.2086 68.3978 3.05383 75.1616 -3.69333L74.726 -4.08031ZM50.1271 24.3579C52.7856 13.8644 61.1805 4.61897 67.9415 -2.1254L68.3771 -1.73842C61.6133 5.00874 53.3202 14.1635 50.7003 24.5042C49.3927 29.6655 49.4998 35.1184 51.9168 40.719C54.3348 46.3222 59.0746 52.0953 67.0715 57.8795C85.6895 71.346 102.984 72.0223 116.382 72.5461C117.626 72.5948 118.836 72.6421 120.01 72.6982C126.902 73.0274 132.647 73.6595 136.681 76.7385C140.735 79.8329 142.986 85.3308 143.099 95.1881L142.51 95.1742C142.397 85.3661 140.155 80.0905 136.319 77.163C132.463 74.2199 126.922 73.5814 120.002 73.2508C118.829 73.1948 117.62 73.1476 116.375 73.0991C102.971 72.5764 85.4999 71.895 66.7228 58.3134C58.6628 52.4836 53.8412 46.6325 51.372 40.9109C48.9017 35.1865 48.7955 29.6138 50.1271 24.3579ZM60.9522 -0.557702C54.1912 6.18667 45.7963 15.4321 43.1378 25.9256C41.8062 31.1815 41.9124 36.7542 44.3827 42.4786C46.8519 48.2002 51.6735 54.0513 59.7335 59.8811C78.5107 73.4627 95.9818 74.1441 109.386 74.6668C110.63 74.7153 111.84 74.7625 113.012 74.8185C119.933 75.1491 125.474 75.7876 129.33 78.7307C133.165 81.6582 135.408 86.9337 135.521 96.7419L136.11 96.7558C135.996 86.8985 133.745 81.4006 129.691 78.3062C125.657 75.2272 119.913 74.5951 113.021 74.2659C111.847 74.2098 110.637 74.1625 109.393 74.1138C95.995 73.59 78.7002 72.9137 60.0822 59.4472C52.0853 53.663 47.3456 47.8899 44.9275 42.2867C42.5106 36.6861 42.4035 31.2332 43.7111 26.0719C46.3309 15.7312 54.624 6.57644 61.3878 -0.17072L60.9522 -0.557702ZM36.0513 27.3041C38.7099 16.8106 47.1048 7.56518 53.8658 0.820812L54.3013 1.20779C47.5376 7.95495 39.2444 17.1097 36.6246 27.4504C35.317 32.6117 35.4241 38.0646 37.841 43.6652C40.2591 49.2684 44.9988 55.0415 52.9957 60.8257C71.6138 74.2922 88.9086 74.9685 102.307 75.4923C103.55 75.541 104.76 75.5883 105.935 75.6444C112.827 75.9737 118.571 76.6057 122.605 79.6847C126.659 82.7791 128.91 88.277 129.024 98.1343L128.435 98.1204C128.322 88.3123 126.079 83.0367 122.243 80.1092C118.388 77.1662 112.846 76.5276 105.926 76.197C104.754 76.141 103.544 76.0938 102.299 76.0453C88.8953 75.5226 71.4242 74.8412 52.6471 61.2597C44.587 55.4298 39.7655 49.5788 37.2963 43.8571C34.8259 38.1327 34.7198 32.56 36.0513 27.3041ZM46.7642 2.16757C40.0032 8.91193 31.6083 18.1573 28.9498 28.6509C27.6182 33.9067 27.7243 39.4795 30.1947 45.2038C32.6639 50.9255 37.4854 56.7765 45.5455 62.6064C64.3226 76.188 81.7937 76.8693 95.1975 77.3921C96.4423 77.4406 97.652 77.4878 98.8244 77.5438C105.744 77.8744 111.286 78.5129 115.142 81.4559C118.977 84.3835 121.22 89.659 121.333 99.4672L121.922 99.4811C121.808 89.6238 119.557 84.1259 115.503 81.0315C111.469 77.9525 105.725 77.3204 98.8332 76.9911C97.6587 76.935 96.4486 76.8877 95.2049 76.8391C81.807 76.3152 64.5122 75.639 45.8941 62.1725C37.8972 56.3883 33.1575 50.6152 30.7394 45.0119C28.3225 39.4114 28.2154 33.9584 29.523 28.7972C32.1428 18.4564 40.436 9.3017 47.1997 2.55455L46.7642 2.16757ZM21.8908 30.084C24.5493 19.5904 32.9442 10.345 39.7052 3.60068L40.1408 3.98766C33.377 10.7348 25.0839 19.8896 22.4641 30.2303C21.1565 35.3916 21.2636 40.8445 23.6805 46.4451C26.0986 52.0483 30.8383 57.8214 38.8352 63.6056C57.4532 77.0721 74.748 77.7483 88.146 78.2722C89.3896 78.3208 90.5998 78.3682 91.7742 78.4243C98.666 78.7535 104.41 79.3856 108.444 82.4646C112.498 85.559 114.749 91.0569 114.863 100.914L114.274 100.9C114.161 91.0921 111.918 85.8166 108.083 82.889C104.227 79.946 98.6855 79.3075 91.7655 78.9769C90.593 78.9209 89.3833 78.8737 88.1386 78.8252C74.7348 78.3024 57.2637 77.6211 38.4865 64.0395C30.4265 58.2096 25.6049 52.3586 23.1357 46.6369C20.6654 40.9126 20.5592 35.3399 21.8908 30.084ZM32.7359 5.20689C25.9749 11.9513 17.58 21.1967 14.9214 31.6902C13.5899 36.9461 13.696 42.5188 16.1664 48.2431C18.6356 53.9648 23.4571 59.8158 31.5172 65.6457C50.2943 79.2273 67.7654 79.9086 81.1691 80.4314L81.1692 80.4314C82.414 80.4799 83.6237 80.5271 84.7961 80.5831C91.7162 80.9137 97.2578 81.5522 101.114 84.4953C104.949 87.4228 107.192 92.6983 107.305 102.506L107.894 102.52C107.78 92.6631 105.529 87.1652 101.475 84.0708C97.441 80.9918 91.6966 80.3597 84.8049 80.0305C83.6304 79.9744 82.4203 79.927 81.1766 79.8784C67.7787 79.3546 50.4838 78.6783 31.8658 65.2118C23.8689 59.4276 19.1292 53.6545 16.7111 48.0513C14.2942 42.4507 14.1871 36.9978 15.4947 31.8365C18.1145 21.4958 26.4076 12.341 33.1714 5.59387L32.7359 5.20689ZM8.07532 33.5295C10.7338 23.036 19.1288 13.7906 25.8898 7.04624L26.3253 7.43322C19.5615 14.1804 11.2684 23.3351 8.64859 33.6759C7.34099 38.8371 7.44807 44.2901 9.865 49.8906C12.2831 55.4938 17.0228 61.267 25.0197 67.0512C43.6377 80.5177 60.9326 81.1939 74.3305 81.7178C75.5742 81.7664 76.7843 81.8137 77.9587 81.8698C84.8505 82.1991 90.5949 82.8312 94.6288 85.9101C98.683 89.0046 100.934 94.5024 101.048 104.36L100.459 104.346C100.346 94.5377 98.103 89.2622 94.2674 86.3346C90.4116 83.3916 84.8701 82.7531 77.95 82.4225C76.7776 82.3664 75.5679 82.3193 74.3231 82.2707L74.3231 82.2707C60.9193 81.748 43.4482 81.0667 24.6711 67.4851C16.611 61.6552 11.7894 55.8042 9.32024 50.0825C6.8499 44.3582 6.74374 38.7854 8.07532 33.5295ZM19.1911 9.15866C12.4301 15.903 4.03515 25.1484 1.37661 35.642C0.0450407 40.8978 0.1512 46.4706 2.62154 52.1949C5.09074 57.9166 9.9123 63.7676 17.9724 69.5975C36.7495 83.1791 54.2205 83.8604 67.6243 84.3832L67.6244 84.3831L67.6244 84.3831C68.8692 84.4317 70.0789 84.4789 71.2513 84.5349C78.1714 84.8655 83.7129 85.504 87.5687 88.447C91.4043 91.3746 93.6468 96.6501 93.7599 106.458L94.3489 106.472C94.2352 96.6148 91.9843 91.117 87.9301 88.0226C83.8962 84.9436 78.1518 84.3115 71.26 83.9822C70.0856 83.9261 68.8755 83.8788 67.6318 83.8302C54.2338 83.3063 36.939 82.6301 18.321 69.1636C10.3241 63.3794 5.58437 57.6063 3.1663 52.003C0.749367 46.4025 0.642286 40.9495 1.94989 35.7883C4.56971 25.4475 12.8628 16.2928 19.6266 9.54564L19.1911 9.15866Z" fill="url(#paint0_radial_30_176)" fill-opacity="0.58"/>
<defs>
<radialGradient id="paint0_radial_30_176" cx="0" cy="0" r="1" gradientUnits="userSpaceOnUse" gradientTransform="translate(78.9813 40.641) rotate(44.6554) scale(82.2368 83.1472)">
<stop stop-color="white"/>
<stop offset="1" stop-color="#1E1E1E" stop-opacity="0"/>
<stop offset="1" stop-color="#0E0E35" stop-opacity="0"/>
<stop offset="1" stop-color="white" stop-opacity="0"/>
</radialGradient>
</defs>
</svg>
