<svg width="39" height="143" viewBox="0 0 39 143" fill="none" xmlns="http://www.w3.org/2000/svg">
<path fill-rule="evenodd" clip-rule="evenodd" d="M-92.9989 141.275C-84.9746 140.354 -74.4603 138.466 -66.3667 131.424C-63.835 129.221 -61.5446 126.518 -59.6417 123.19C-57.7723 121.486 -56.0442 119.497 -54.5187 117.169C-54.3301 117.013 -54.1428 116.854 -53.9567 116.692C-52.5182 115.44 -51.1575 114.027 -49.9016 112.429C-49.1532 111.886 -48.4203 111.304 -47.7062 110.683C-47.4945 110.499 -47.2845 110.311 -47.0763 110.12C-39.5895 109.042 -30.6825 106.822 -23.6191 100.676C-15.5094 93.6196 -9.87605 81.4318 -11.5202 60.0243C-13.4354 35.087 -22.7425 22.0508 -29.8906 12.0387C-30.5536 11.11 -31.1981 10.2073 -31.8163 9.32361C-35.4585 4.11758 -38.1534 -0.382335 -38.4514 -5.66333C-38.7493 -10.942 -36.6535 -17.0665 -30.5397 -25.4998L-30.9966 -25.8671C-37.1385 -17.3949 -39.321 -11.1419 -39.012 -5.6664C-38.7032 -0.193161 -35.9064 4.43792 -32.264 9.64433C-31.6453 10.5286 -31.0012 11.4309 -30.3392 12.3583L-30.3364 12.3621L-30.3363 12.3623C-23.2016 22.3563 -13.9818 35.2711 -12.08 60.0335C-10.4462 81.3067 -16.0452 93.303 -23.9962 100.221C-30.6869 106.043 -39.0754 108.299 -46.3357 109.417L-46.2519 109.335C-45.9597 109.161 -45.6691 108.982 -45.3804 108.798C-39.8719 107.377 -34.1824 105.01 -29.3544 100.809C-21.2447 93.7528 -15.6113 81.5649 -17.2555 60.1574C-19.1707 35.2201 -28.4778 22.1839 -35.6258 12.1718C-36.2889 11.2432 -36.9333 10.3405 -37.5516 9.45676C-41.1937 4.25072 -43.8887 -0.249184 -44.1867 -5.5302C-44.4845 -10.8089 -42.3887 -16.9334 -36.275 -25.3667L-36.7319 -25.734C-42.8738 -17.2618 -45.0562 -11.0088 -44.7473 -5.53325C-44.4385 -0.0600078 -41.6416 4.57107 -37.9992 9.77747C-37.381 10.6612 -36.7373 11.5629 -36.0757 12.4896L-36.0747 12.4911L-36.0719 12.4949L-36.0718 12.4951L-36.0717 12.4952L-36.0717 12.4953L-36.0716 12.4954C-28.9369 22.4894 -19.7171 35.4042 -17.8153 60.1666C-16.1814 81.4398 -21.7805 93.4362 -29.7315 100.354C-33.6899 103.799 -38.2425 105.995 -42.8043 107.446C-40.1904 106.173 -37.66 104.573 -35.3302 102.545C-27.2205 95.4893 -21.5871 83.3015 -23.2313 61.894C-25.1465 36.9567 -34.4536 23.9205 -41.6016 13.9084C-42.2647 12.9797 -42.9091 12.0771 -43.5274 11.1933C-47.1695 5.98727 -49.8645 1.48737 -50.1625 -3.79364C-50.4603 -9.07234 -48.3645 -15.1968 -42.2508 -23.6301L-42.7077 -23.9974C-48.8496 -15.5252 -51.032 -9.27224 -50.7231 -3.7967C-50.4143 1.67655 -47.6174 6.30763 -43.975 11.514C-43.3568 12.3977 -42.7131 13.2994 -42.0515 14.2262L-42.0505 14.2276L-42.0477 14.2315L-42.0476 14.2316L-42.0475 14.2317L-42.0475 14.2319L-42.0474 14.232C-34.9127 24.226 -25.6929 37.1408 -23.7911 61.9032C-22.1572 83.1764 -27.7563 95.1728 -35.7073 102.091C-37.7203 103.842 -39.887 105.271 -42.1304 106.443C-41.9103 106.262 -41.6918 106.077 -41.4751 105.889C-33.3655 98.8324 -27.7321 86.6446 -29.3762 65.237C-31.2914 40.2997 -40.5985 27.2636 -47.7466 17.2515L-47.7471 17.2507L-47.7495 17.2474C-48.4115 16.3202 -49.055 15.4188 -49.6723 14.5364C-53.3145 9.33035 -56.0094 4.83043 -56.3074 -0.450567C-56.6053 -5.72926 -54.5095 -11.8537 -48.3957 -20.287L-48.8526 -20.6543C-54.9945 -12.1822 -57.177 -5.92916 -56.868 -0.453618C-56.5592 5.01961 -53.7624 9.65069 -50.12 14.8571C-49.5018 15.7408 -48.8581 16.6425 -48.1964 17.5693L-48.1954 17.5707L-48.1927 17.5746L-48.1926 17.5747L-48.1925 17.5748L-48.1924 17.5749L-48.1923 17.5751C-41.0576 27.569 -31.8378 40.4838 -29.936 65.2463C-28.3022 86.5194 -33.9012 98.5158 -41.8522 105.434C-42.7398 106.206 -43.6574 106.916 -44.5982 107.568C-38.2205 100.204 -34.1829 88.5773 -35.6073 70.0314C-37.5225 45.0941 -46.8296 32.0579 -53.9776 22.0459C-54.6407 21.1172 -55.2851 20.2145 -55.9034 19.3308C-59.5455 14.1247 -62.2405 9.62482 -62.5385 4.34382C-62.8363 -0.934876 -60.7405 -7.05936 -54.6268 -15.4926L-55.0837 -15.86C-61.2256 -7.38779 -63.408 -1.13477 -63.0991 4.34075C-62.7903 9.814 -59.9934 14.4451 -56.351 19.6515C-55.7331 20.5348 -55.0897 21.436 -54.4285 22.3623L-54.4271 22.3642L-54.4245 22.3678L-54.4234 22.3694C-47.2887 32.3634 -38.0689 45.2782 -36.1671 70.0406C-34.6842 89.3476 -39.1591 101.013 -45.9428 108.177C-46.3228 108.326 -46.7037 108.47 -47.0852 108.607C-47.1744 108.628 -47.2634 108.648 -47.3524 108.668C-43.0835 101.325 -40.7161 90.9054 -41.8578 76.0402C-43.7731 51.1029 -53.0801 38.0667 -60.2282 28.0546C-60.8912 27.126 -61.5357 26.2233 -62.154 25.3395C-65.7961 20.1335 -68.4911 15.6336 -68.789 10.3526C-69.0869 5.0739 -66.9911 -1.05058 -60.8774 -9.48386L-61.3343 -9.85118C-67.4762 -1.379 -69.6586 4.874 -69.3496 10.3495C-69.0408 15.8228 -66.244 20.4539 -62.6016 25.6603C-61.9821 26.5458 -61.337 27.4494 -60.6739 28.3782C-53.5393 38.3722 -44.3194 51.287 -42.4176 76.0494C-41.2575 91.155 -43.7442 101.583 -48.1303 108.837C-48.9903 109.018 -49.8422 109.179 -50.6819 109.324C-48.323 102.631 -47.2389 94.0497 -48.0858 83.0224C-50.001 58.0851 -59.3081 45.0489 -66.4562 35.0368C-67.1192 34.1081 -67.7637 33.2055 -68.3819 32.3217C-72.0241 27.1157 -74.719 22.6158 -75.017 17.3348C-75.3149 12.0561 -73.2191 5.9316 -67.1054 -2.50167L-67.5622 -2.869C-73.7042 5.60318 -75.8866 11.8562 -75.5776 17.3317C-75.2688 22.805 -72.472 27.436 -68.8296 32.6424C-68.2116 33.5257 -67.5683 34.427 -66.907 35.3533L-66.9057 35.3552L-66.9031 35.3588L-66.9019 35.3604C-59.7672 45.3544 -50.5474 58.2692 -48.6456 83.0316C-47.7896 94.1773 -48.919 102.776 -51.3319 109.433C-52.5879 109.638 -53.8135 109.807 -54.9947 109.953C-54.0052 104.562 -53.6953 98.226 -54.2678 90.772C-56.183 65.8347 -65.4901 52.7985 -72.6382 42.7864L-72.6396 42.7844C-73.3022 41.8564 -73.9461 40.9544 -74.5639 40.0714C-78.2061 34.8653 -80.9011 30.3654 -81.199 25.0844C-81.4969 19.8057 -79.4011 13.6812 -73.2874 5.24794L-73.7442 4.88064C-79.8862 13.3528 -82.0686 19.6058 -81.7596 25.0813C-81.4508 30.5546 -78.654 35.1857 -75.0116 40.3921C-74.3921 41.2776 -73.747 42.1812 -73.0839 43.11C-65.9492 53.104 -56.7294 66.0188 -54.8276 90.7812C-54.2509 98.2899 -54.5754 104.643 -55.5862 110.025C-55.7529 110.044 -55.9186 110.064 -56.0834 110.083L-55.9866 110.66L-55.7032 110.628C-55.7214 110.719 -55.7398 110.81 -55.7584 110.9C-57.9551 111.306 -60.0793 111.592 -62.0592 111.819L-61.9624 112.397C-60.0568 112.178 -58.0109 111.905 -55.8902 111.521C-55.9938 111.994 -56.1029 112.459 -56.2173 112.917C-60.4029 114.124 -64.5496 114.743 -68.2041 115.162L-68.1073 115.74C-64.5479 115.331 -60.4985 114.732 -56.3879 113.578C-56.5891 114.335 -56.8053 115.07 -57.0356 115.785C-62.9574 118.346 -69.201 119.356 -74.4352 119.957L-74.3384 120.534C-69.2392 119.949 -63.1345 118.973 -57.2845 116.532C-57.5995 117.45 -57.9385 118.331 -58.2995 119.178C-65.5418 123.742 -73.9496 125.192 -80.6857 125.966L-80.5889 126.543C-74.0659 125.794 -65.8974 124.407 -58.7214 120.13C-59.1504 121.063 -59.6072 121.952 -60.0891 122.799C-60.2457 122.941 -60.4033 123.081 -60.5618 123.219C-68.5289 130.151 -78.9034 132.028 -86.9137 132.948L-86.8169 133.525C-79.0825 132.637 -69.0347 130.851 -61.0711 124.417C-62.7425 126.999 -64.6626 129.158 -66.7438 130.969C-74.7109 137.901 -85.0854 139.778 -93.0957 140.697L-92.9989 141.275ZM-50.2977 110.25C-50.5671 110.326 -50.8362 110.399 -51.1049 110.469C-51.2066 110.732 -51.3103 110.992 -51.4161 111.249C-50.8128 111 -50.2124 110.735 -49.6162 110.453C-49.8296 110.478 -50.0413 110.503 -50.2513 110.527L-50.2977 110.25ZM-55.1091 110.557C-54.2451 110.452 -53.3555 110.334 -52.4459 110.2C-53.3563 110.418 -54.2607 110.612 -55.1543 110.786L-55.1295 110.661L-55.1091 110.557ZM-55.283 111.408C-55.3782 111.856 -55.4784 112.296 -55.5832 112.729C-54.4438 112.385 -53.3032 111.995 -52.1706 111.552C-52.0423 111.254 -51.9168 110.952 -51.7942 110.646C-52.9701 110.939 -54.1364 111.191 -55.283 111.408ZM-47.8519 109.499L-47.9103 109.593C-47.7897 109.528 -47.6693 109.463 -47.5492 109.396C-47.6501 109.431 -47.751 109.465 -47.8519 109.499ZM-48.5651 110.599L-48.4458 110.539C-48.5064 110.59 -48.5671 110.641 -48.628 110.691L-48.5651 110.599ZM-51.7426 112.018C-51.0399 111.74 -50.3402 111.441 -49.6455 111.119C-49.861 111.415 -50.0799 111.705 -50.3022 111.989C-50.9775 112.478 -51.6657 112.936 -52.3642 113.366C-52.1507 112.926 -51.9434 112.477 -51.7426 112.018ZM-55.7489 113.394C-54.669 113.076 -53.5863 112.718 -52.5087 112.314C-52.7598 112.863 -53.0204 113.396 -53.2901 113.915C-54.2892 114.488 -55.3069 115.005 -56.3359 115.474C-56.1277 114.799 -55.9318 114.106 -55.7489 113.394ZM-56.5765 116.229C-56.8475 117.054 -57.1374 117.851 -57.4451 118.621C-56.5927 118.047 -55.7585 117.427 -54.9473 116.757C-54.5551 116.156 -54.1764 115.531 -53.8123 114.882C-54.7225 115.373 -55.6456 115.82 -56.5765 116.229ZM-52.8627 114.352C-53.0596 114.727 -53.2611 115.094 -53.4672 115.454C-52.8595 114.883 -52.2674 114.281 -51.6931 113.644C-52.0799 113.889 -52.4699 114.125 -52.8627 114.352ZM-57.8485 119.593C-57.2527 119.213 -56.6648 118.813 -56.0861 118.39C-56.9207 119.51 -57.8054 120.541 -58.7313 121.49C-58.4244 120.877 -58.1299 120.245 -57.8485 119.593ZM-18.1557 101.96C-26.2493 109.002 -36.7635 110.89 -44.7879 111.811L-44.8847 111.233C-36.8743 110.314 -26.4998 108.437 -18.5328 101.505C-10.5818 94.5869 -4.98274 82.5905 -6.61657 61.3174C-8.51838 36.5549 -17.7382 23.6401 -24.8729 13.6462C-25.536 12.7173 -26.181 11.8137 -26.8006 10.9282C-30.4429 5.72178 -33.2398 1.0907 -33.5486 -4.38254C-33.8576 -9.85807 -31.6751 -16.1111 -25.5332 -24.5832L-25.0763 -24.2159C-31.19 -15.7826 -33.2858 -9.65817 -32.988 -4.37947C-32.69 0.90153 -29.995 5.40145 -26.3529 10.6075C-25.7347 11.4912 -25.0902 12.3939 -24.4272 13.3226C-17.2791 23.3347 -7.97202 36.3708 -6.05678 61.3081C-4.41263 82.7157 -10.046 94.9035 -18.1557 101.96ZM-39.5773 114.207C-31.553 113.285 -21.0387 111.397 -12.9451 104.355C-4.83546 97.2991 0.797945 85.1113 -0.846201 63.7038C-2.76144 38.7665 -12.0685 25.7303 -19.2166 15.7182L-19.218 15.7162C-19.8806 14.7882 -20.5245 13.8862 -21.1423 13.0031C-24.7845 7.79705 -27.4794 3.29715 -27.7774 -1.98385C-28.0753 -7.26255 -25.9795 -13.387 -19.8657 -21.8203L-20.3226 -22.1876C-26.4646 -13.7155 -28.647 -7.46245 -28.338 -1.98692C-28.0292 3.48632 -25.2324 8.1174 -21.59 13.3238C-20.9705 14.2093 -20.3254 15.1129 -19.6623 16.0418C-12.5276 26.0358 -3.3078 38.9506 -1.406 63.713C0.227832 84.9861 -5.37123 96.9825 -13.3222 103.901C-21.2893 110.833 -31.6638 112.709 -39.6741 113.629L-39.5773 114.207ZM-7.93196 107.53C-16.0255 114.572 -26.5398 116.46 -34.5642 117.381L-34.661 116.803C-26.6506 115.884 -16.2761 114.007 -8.30906 107.075C-0.358084 100.157 5.24098 88.1604 3.60715 66.8873C1.70534 42.1248 -7.51449 29.21 -14.6492 19.216C-15.3122 18.2872 -15.9573 17.3836 -16.5768 16.4981C-20.2192 11.2917 -23.0161 6.6606 -23.3249 1.18736C-23.6338 -4.28817 -21.4514 -10.5412 -15.3095 -19.0133L-14.8526 -18.646C-20.9663 -10.2127 -23.0621 -4.08827 -22.7643 1.19043C-22.4663 6.47143 -19.7713 10.9713 -16.1292 16.1774C-15.5109 17.0611 -14.8665 17.9638 -14.2034 18.8925C-7.05539 28.9046 2.2517 41.9407 4.16694 66.878C5.81109 88.2856 0.17769 100.473 -7.93196 107.53ZM-29.6806 121.031C-21.6563 120.11 -11.142 118.222 -3.04842 111.179C5.06123 104.123 10.6946 91.9354 9.05049 70.5279C7.13525 45.5906 -2.17184 32.5544 -9.3199 22.5423C-9.98294 21.6137 -10.6274 20.711 -11.2456 19.8272C-14.8878 14.6212 -17.5828 10.1213 -17.8807 4.84029C-18.1786 -0.43841 -16.0828 -6.56289 -9.96905 -14.9962L-10.426 -15.3635C-16.5679 -6.89131 -18.7503 -0.63831 -18.4413 4.83723C-18.1325 10.3105 -15.3357 14.9416 -11.6933 20.148C-11.0751 21.0317 -10.4314 21.9333 -9.76975 22.8601L-9.76876 22.8615L-9.76598 22.8654L-9.76589 22.8655L-9.7658 22.8657L-9.76571 22.8658L-9.76562 22.8659C-2.63095 32.8599 6.58889 45.7747 8.49069 70.5371C10.1245 91.8103 4.52546 103.807 -3.42552 110.725C-11.3926 117.657 -21.7671 119.533 -29.7774 120.453L-29.6806 121.031ZM1.77016 115.06C-6.32341 122.102 -16.8377 123.99 -24.8621 124.911L-24.9588 124.334C-16.9485 123.414 -6.57399 121.537 1.39306 114.605C9.34403 107.687 14.9431 95.6907 13.3093 74.4175C11.4075 49.6551 2.18763 36.7403 -4.94704 26.7463C-5.61013 25.8175 -6.2552 24.9139 -6.87472 24.0284C-10.5171 18.8219 -13.3139 14.1909 -13.6228 8.71762C-13.9317 3.24209 -11.7493 -3.01092 -5.60737 -11.4831L-5.15048 -11.1158C-11.2642 -2.68249 -13.36 3.44199 -13.0621 8.72069C-12.7642 14.0017 -10.0692 18.5016 -6.42707 23.7076C-5.80913 24.5909 -5.165 25.4931 -4.50232 26.4213L-4.50132 26.4227C2.64674 36.4348 11.9538 49.471 13.8691 74.4083C15.5132 95.8158 9.87981 108.004 1.77016 115.06ZM-20.0551 128.829C-12.0308 127.908 -1.51648 126.02 6.57709 118.978C14.6867 111.922 20.3201 99.734 18.676 78.3265C16.7608 53.3892 7.45367 40.353 0.305608 30.3409C-0.357427 29.4122 -1.00189 28.5096 -1.62014 27.6258C-5.26226 22.4198 -7.95724 17.9199 -8.25522 12.6389C-8.55307 7.36016 -6.45726 1.23568 -0.34355 -7.19759L-0.800445 -7.56492C-6.94236 0.907263 -9.12478 7.16026 -8.81584 12.6358C-8.50701 18.109 -5.71017 22.7401 -2.06779 27.9465C-1.4483 28.832 -0.803266 29.7356 -0.140213 30.6644L-0.140112 30.6645C6.99456 40.6585 16.2144 53.5733 18.1162 78.3357C19.75 99.6089 14.151 111.605 6.19999 118.523C-1.76707 125.455 -12.1416 127.332 -20.1519 128.252L-20.0551 128.829ZM11.4148 122.792C3.32124 129.834 -7.19305 131.722 -15.2174 132.644L-15.3142 132.066C-7.30384 131.146 3.07065 129.27 11.0377 122.338C18.9887 115.42 24.5877 103.423 22.9539 82.1499C21.0521 57.3875 11.8323 44.4727 4.69761 34.4787L4.69751 34.4786C4.03446 33.5498 3.38942 32.6463 2.76993 31.7608C-0.872447 26.5544 -3.66929 21.9233 -3.97811 16.4501C-4.28706 10.9745 -2.10463 4.72152 4.03728 -3.75066L4.49418 -3.38334C-1.61954 5.04994 -3.71535 11.1744 -3.4175 16.4531C-3.11953 21.7341 -0.424537 26.234 3.21758 31.4401C3.83584 32.3238 4.48029 33.2265 5.14333 34.1552C12.2914 44.1673 21.5985 57.2034 23.5137 82.1407C25.1579 103.548 19.5245 115.736 11.4148 122.792ZM-10.3207 136.247C-2.29636 135.325 8.21793 133.438 16.3115 126.395C24.4212 119.339 30.0546 107.151 28.4104 85.7438C26.4952 60.8065 17.1881 47.7703 10.04 37.7582L10.0395 37.7574C9.37663 36.829 8.73236 35.9266 8.11427 35.0431C4.47216 29.8371 1.77716 25.3372 1.47919 20.0562C1.18135 14.7775 3.27715 8.653 9.39087 0.219709L8.93397 -0.147614C2.79206 8.32457 0.609625 14.5776 0.918581 20.0531C1.22741 25.5264 4.02424 30.1574 7.66662 35.3638C8.28578 36.2489 8.93046 37.1519 9.59314 38.0802L9.5943 38.0818C16.729 48.0758 25.9488 60.9906 27.8506 85.753C29.4844 107.026 23.8854 119.023 15.9344 125.941C7.96734 132.873 -2.40715 134.749 -10.4175 135.669L-10.3207 136.247ZM21.2863 129.712C13.1928 136.754 2.67848 138.642 -5.34587 139.563L-5.44265 138.986C2.56768 138.066 12.9422 136.189 20.9092 129.257C28.8602 122.339 34.4593 110.343 32.8255 89.0696C30.9236 64.3072 21.7038 51.3924 14.5691 41.3984C13.9061 40.4696 13.261 39.566 12.6415 38.6805C8.99908 33.4741 6.20224 28.843 5.89342 23.3697C5.58446 17.8942 7.7669 11.6412 13.9088 3.16903L14.3657 3.53635C8.25199 11.9696 6.15618 18.0941 6.45403 23.3728C6.752 28.6538 9.44699 33.1537 13.0891 38.3598C13.7074 39.2435 14.3518 40.1462 15.0149 41.0748C22.1629 51.0869 31.47 64.1231 33.3852 89.0604C35.0294 110.468 29.396 122.656 21.2863 129.712ZM-0.281413 142.542C7.74293 141.621 18.2572 139.733 26.3508 132.691C34.4604 125.635 40.0938 113.447 38.4497 92.0393C36.5345 67.102 27.2274 54.0659 20.0793 44.0538L20.079 44.0533C19.4161 43.1248 18.7717 42.2223 18.1536 41.3387C14.5114 36.1326 11.8165 31.6327 11.5185 26.3517C11.2206 21.073 13.3164 14.9485 19.4302 6.51527L18.9733 6.14794C12.8314 14.6201 10.6489 20.8731 10.9579 26.3487C11.2667 31.8219 14.0635 36.453 17.7059 41.6594C18.3254 42.5449 18.9705 43.4485 19.6336 44.3773C26.7683 54.3713 35.9881 67.2861 37.8899 92.0486C39.5237 113.322 33.9247 125.318 25.9737 132.236C18.0066 139.168 7.63214 141.045 -0.378191 141.965L-0.281413 142.542Z" fill="url(#paint0_radial_42_628)" fill-opacity="0.58"/>
<defs>
<radialGradient id="paint0_radial_42_628" cx="0" cy="0" r="1" gradientUnits="userSpaceOnUse" gradientTransform="translate(-13.834 73.1306) rotate(-87.632) scale(90.969 69.4478)">
<stop stop-color="white"/>
<stop offset="1" stop-color="#1E1E1E" stop-opacity="0"/>
<stop offset="1" stop-color="#0E0E35" stop-opacity="0"/>
<stop offset="1" stop-color="white" stop-opacity="0"/>
</radialGradient>
</defs>
</svg>
