<svg width="25" height="25" viewBox="0 0 25 25" fill="none" xmlns="http://www.w3.org/2000/svg">
<path fill-rule="evenodd" clip-rule="evenodd" d="M11.4583 0.260498C5.84911 0.260498 1.302 4.80761 1.302 10.4167C1.302 16.0259 5.84911 20.573 11.4583 20.573C17.0674 20.573 21.6145 16.0259 21.6145 10.4167C21.6145 4.80761 17.0674 0.260498 11.4583 0.260498ZM2.8645 10.4167C2.8645 5.67055 6.71206 1.823 11.4583 1.823C16.2044 1.823 20.052 5.67055 20.052 10.4167C20.052 15.1629 16.2044 19.0105 11.4583 19.0105C6.71206 19.0105 2.8645 15.1629 2.8645 10.4167Z" fill="#2D264B"/>
<path d="M20.3441 18.1978C20.039 17.8927 19.5443 17.8927 19.2392 18.1977C18.9341 18.5028 18.9341 18.9975 19.2392 19.3026L23.4058 23.4692C23.7109 23.7743 24.2055 23.7743 24.5106 23.4692C24.8157 23.1641 24.8157 22.6695 24.5106 22.3644L20.3441 18.1978Z" fill="#2D264B"/>
</svg>
