<svg width="20" height="25" viewBox="0 0 20 25" fill="none" xmlns="http://www.w3.org/2000/svg">
    <path fill-rule="evenodd" clip-rule="evenodd"
        d="M9.99992 0.458252C6.93934 0.458252 4.45825 2.93934 4.45825 5.99992C4.45825 9.0605 6.93934 11.5416 9.99992 11.5416C13.0605 11.5416 15.5416 9.0605 15.5416 5.99992C15.5416 2.93934 13.0605 0.458252 9.99992 0.458252ZM6.20825 5.99992C6.20825 3.90584 7.90584 2.20825 9.99992 2.20825C12.094 2.20825 13.7916 3.90584 13.7916 5.99992C13.7916 8.094 12.094 9.79159 9.99992 9.79159C7.90584 9.79159 6.20825 8.094 6.20825 5.99992Z"
        fill="#808080" />
    <path fill-rule="evenodd" clip-rule="evenodd"
        d="M6.49992 13.2916C3.43934 13.2916 0.958252 15.7727 0.958252 18.8333C0.958252 21.8938 3.43934 24.3749 6.49992 24.3749H13.4999C16.5605 24.3749 19.0416 21.8938 19.0416 18.8333C19.0416 15.7727 16.5605 13.2916 13.4999 13.2916H6.49992ZM2.70825 18.8333C2.70825 16.7392 4.40584 15.0416 6.49992 15.0416H13.4999C15.594 15.0416 17.2916 16.7392 17.2916 18.8333C17.2916 20.9273 15.594 22.6249 13.4999 22.6249H6.49992C4.40584 22.6249 2.70825 20.9273 2.70825 18.8333Z"
        fill="#808080" />
</svg>
